<svg xmlns="http://www.w3.org/2000/svg" xmlns:xlink="http://www.w3.org/1999/xlink" viewBox="0 0 338.57 261.44"><defs><style>.cls-1{fill:url(#Degradado_sin_nombre_5);}</style><linearGradient id="Degradado_sin_nombre_5" y1="130.72" x2="338.57" y2="130.72" gradientUnits="userSpaceOnUse"><stop offset="0" stop-color="#39fffa"/><stop offset="0.14" stop-color="#39fffa"/><stop offset="1" stop-color="#00a9f4"/></linearGradient></defs><g id="Capa_2" data-name="Capa 2"><g id="Capa_1-2" data-name="Capa 1"><path class="cls-1" d="M270.16,0H68.41L0,104.45l169.29,157,169.28-157Zm38.25,95.28H268.28a1.23,1.23,0,0,1-1-.57L249,66.93a1.22,1.22,0,0,1,0-1.37L269.1,34.92a1.26,1.26,0,0,1,2.1,0l38.26,58.42A1.26,1.26,0,0,1,308.41,95.28ZM151.08,176.37V54.61h-46a1.25,1.25,0,0,1-1.05-.56L81.86,20.14a1.26,1.26,0,0,1,1-1.94H256a1.25,1.25,0,0,1,1,1.94l-22.2,33.91a1.24,1.24,0,0,1-1,.56H187.49v90.32a1.2,1.2,0,0,1-.4.91l-33.91,31.45A1.25,1.25,0,0,1,151.08,176.37Zm18.17,57.39V187.92a1.24,1.24,0,0,1,.4-.92l78.92-73.18a1.22,1.22,0,0,1,.85-.34h49.5a1.25,1.25,0,0,1,.85,2.17l-128.42,119A1.25,1.25,0,0,1,169.25,233.76Z"/><path class="cls-1" d="M270.16,0H68.41L0,104.45l169.29,157,169.28-157Zm38.25,95.28H268.28a1.23,1.23,0,0,1-1-.57L249,66.93a1.22,1.22,0,0,1,0-1.37L269.1,34.92a1.26,1.26,0,0,1,2.1,0l38.26,58.42A1.26,1.26,0,0,1,308.41,95.28ZM151.08,176.37V54.61h-46a1.25,1.25,0,0,1-1.05-.56L81.86,20.14a1.26,1.26,0,0,1,1-1.94H256a1.25,1.25,0,0,1,1,1.94l-22.2,33.91a1.24,1.24,0,0,1-1,.56H187.49v90.32a1.2,1.2,0,0,1-.4.91l-33.91,31.45A1.25,1.25,0,0,1,151.08,176.37Zm18.17,57.39V187.92a1.24,1.24,0,0,1,.4-.92l78.92-73.18a1.22,1.22,0,0,1,.85-.34h49.5a1.25,1.25,0,0,1,.85,2.17l-128.42,119A1.25,1.25,0,0,1,169.25,233.76Z"/></g></g></svg>